<svg version="1.1" xmlns="http://www.w3.org/2000/svg" xmlns:xlink="http://www.w3.org/1999/xlink" width="681" height="600"><g transform="translate(3.5,3.5)"><g fill="none" fill-rule="nonzero" stroke="none" stroke-width="1" stroke-linecap="butt" stroke-linejoin="miter" stroke-miterlimit="10" stroke-dasharray="" stroke-dashoffset="0" font-family="none" font-weight="none" font-size="none" text-anchor="none" style="mix-blend-mode: normal"><rect x="-3" y="-3" width="681" height="600" fill="#6666cc" stroke="none"/><g fill="none" stroke="#ffffff"><path d="M72,446.34375l0,-11.0625l531,0l0,11.0625z"/><path d="M72,475.84375l0,-29.5l11.0625,0l0,29.5z"/><path d="M591.9375,475.84375l0,-29.5l11.0625,0l0,29.5z"/><path d="M72,287.78125l0,-11.0625l531,0l0,11.0625z"/><path d="M72,435.28125l0,-147.5l11.0625,0l0,147.5z"/><path d="M591.9375,435.28125l0,-147.5l11.0625,0l0,147.5z"/><path d="M72,129.21875l0,-11.0625l531,0l0,11.0625z"/><path d="M72,276.71875l0,-147.5l11.0625,0l0,147.5z"/><path d="M591.9375,276.71875l0,-147.5l11.0625,0l0,147.5z"/></g><g fill="#ffffff" stroke="none" font-family="Courier New" font-weight="normal" font-size="15" text-anchor="start"><text x="175.5" y="584.5">Total width 36"   Total Height 21.5"</text></g><text x="652.96419" y="587.5" fill="#ffffff" stroke="none" font-family="FontAwesome" font-weight="normal" font-size="15" text-anchor="start"></text></g></g></svg>