<svg version="1.1" xmlns="http://www.w3.org/2000/svg" xmlns:xlink="http://www.w3.org/1999/xlink" width="681" height="600"><g transform="translate(0.5,0.5)"><g fill="none" fill-rule="nonzero" stroke="none" stroke-width="1" stroke-linecap="butt" stroke-linejoin="miter" stroke-miterlimit="10" stroke-dasharray="" stroke-dashoffset="0" font-family="none" font-weight="none" font-size="none" text-anchor="none" style="mix-blend-mode: normal"><rect x="0" y="0" width="681" height="600" fill="#6666cc" stroke="none"/><g fill="none" stroke="#ffffff"><path d="M96.89098,514.00376l0,-5.07519l121.80451,0l0,5.07519z"/><path d="M96.89098,527.53759l0,-13.53383l5.07519,0l0,13.53383z"/><path d="M213.6203,527.53759l0,-13.53383l5.07519,0l0,13.53383z"/><path d="M96.89098,441.2594l0,-5.07519l121.80451,0l0,5.07519z"/><path d="M96.89098,508.92857l0,-67.66917l5.07519,0l0,67.66917z"/><path d="M213.6203,508.92857l0,-67.66917l5.07519,0l0,67.66917z"/><path d="M96.89098,368.51504l0,-5.07519l121.80451,0l0,5.07519z"/><path d="M96.89098,436.18421l0,-67.66917l5.07519,0l0,67.66917z"/><path d="M213.6203,436.18421l0,-67.66917l5.07519,0l0,67.66917z"/><path d="M96.89098,295.77068l0,-5.07519l121.80451,0l0,5.07519z"/><path d="M96.89098,363.43985l0,-67.66917l5.07519,0l0,67.66917z"/><path d="M213.6203,363.43985l0,-67.66917l5.07519,0l0,67.66917z"/><path d="M96.89098,223.02632l0,-5.07519l121.80451,0l0,5.07519z"/><path d="M96.89098,290.69549l0,-67.66917l5.07519,0l0,67.66917z"/><path d="M213.6203,290.69549l0,-67.66917l5.07519,0l0,67.66917z"/><path d="M96.89098,150.28195l0,-5.07519l121.80451,0l0,5.07519z"/><path d="M96.89098,217.95113l0,-67.66917l5.07519,0l0,67.66917z"/><path d="M213.6203,217.95113l0,-67.66917l5.07519,0l0,67.66917z"/><path d="M96.89098,77.53759l0,-5.07519l121.80451,0l0,5.07519z"/><path d="M96.89098,145.20677l0,-67.66917l5.07519,0l0,67.66917z"/><path d="M213.6203,145.20677l0,-67.66917l5.07519,0l0,67.66917z"/><path d="M218.69549,514.00376l0,-5.07519l243.60902,0l0,5.07519z"/><path d="M218.69549,527.53759l0,-13.53383l5.07519,0l0,13.53383z"/><path d="M457.22932,527.53759l0,-13.53383l5.07519,0l0,13.53383z"/><path d="M218.69549,441.2594l0,-5.07519l243.60902,0l0,5.07519z"/><path d="M218.69549,508.92857l0,-67.66917l5.07519,0l0,67.66917z"/><path d="M457.22932,508.92857l0,-67.66917l5.07519,0l0,67.66917z"/><path d="M218.69549,368.51504l0,-5.07519l243.60902,0l0,5.07519z"/><path d="M218.69549,436.18421l0,-67.66917l5.07519,0l0,67.66917z"/><path d="M457.22932,436.18421l0,-67.66917l5.07519,0l0,67.66917z"/><path d="M218.69549,295.77068l0,-5.07519l243.60902,0l0,5.07519z"/><path d="M218.69549,363.43985l0,-67.66917l5.07519,0l0,67.66917z"/><path d="M457.22932,363.43985l0,-67.66917l5.07519,0l0,67.66917z"/><path d="M462.30451,514.00376l0,-5.07519l121.80451,0l0,5.07519z"/><path d="M462.30451,527.53759l0,-13.53383l5.07519,0l0,13.53383z"/><path d="M579.03383,527.53759l0,-13.53383l5.07519,0l0,13.53383z"/><path d="M462.30451,441.2594l0,-5.07519l121.80451,0l0,5.07519z"/><path d="M462.30451,508.92857l0,-67.66917l5.07519,0l0,67.66917z"/><path d="M579.03383,508.92857l0,-67.66917l5.07519,0l0,67.66917z"/><path d="M462.30451,368.51504l0,-5.07519l121.80451,0l0,5.07519z"/><path d="M462.30451,436.18421l0,-67.66917l5.07519,0l0,67.66917z"/><path d="M579.03383,436.18421l0,-67.66917l5.07519,0l0,67.66917z"/><path d="M462.30451,295.77068l0,-5.07519l121.80451,0l0,5.07519z"/><path d="M462.30451,363.43985l0,-67.66917l5.07519,0l0,67.66917z"/><path d="M579.03383,363.43985l0,-67.66917l5.07519,0l0,67.66917z"/><path d="M462.30451,223.02632l0,-5.07519l121.80451,0l0,5.07519z"/><path d="M462.30451,290.69549l0,-67.66917l5.07519,0l0,67.66917z"/><path d="M579.03383,290.69549l0,-67.66917l5.07519,0l0,67.66917z"/><path d="M462.30451,150.28195l0,-5.07519l121.80451,0l0,5.07519z"/><path d="M462.30451,217.95113l0,-67.66917l5.07519,0l0,67.66917z"/><path d="M579.03383,217.95113l0,-67.66917l5.07519,0l0,67.66917z"/><path d="M462.30451,77.53759l0,-5.07519l121.80451,0l0,5.07519z"/><path d="M462.30451,145.20677l0,-67.66917l5.07519,0l0,67.66917z"/><path d="M579.03383,145.20677l0,-67.66917l5.07519,0l0,67.66917z"/></g><g fill="#ffffff" stroke="none" font-family="Courier New" font-weight="normal" font-size="15" text-anchor="start"><text x="178.5" y="584.5">Total width 72"   Total Height 64.5"</text></g><text x="652.96419" y="587.5" fill="#ffffff" stroke="none" font-family="FontAwesome" font-weight="normal" font-size="15" text-anchor="start"></text></g></g></svg>