<svg version="1.1" xmlns="http://www.w3.org/2000/svg" xmlns:xlink="http://www.w3.org/1999/xlink" width="681" height="600"><g transform="translate(0.5,0.5)"><g fill="none" fill-rule="nonzero" stroke="none" stroke-width="1" stroke-linecap="butt" stroke-linejoin="miter" stroke-miterlimit="10" stroke-dasharray="" stroke-dashoffset="0" font-family="none" font-weight="none" font-size="none" text-anchor="none" style="mix-blend-mode: normal"><rect x="0" y="0" width="681" height="600" fill="#6666cc" stroke="none"/><g fill="none" stroke="#ffffff"><path d="M75,495.89844l0,-2.76562l132.75,0l0,2.76563z"/><path d="M75,503.27344l0,-7.375l2.76563,0l0,7.375z"/><path d="M204.98438,503.27344l0,-7.375l2.76563,0l0,7.375z"/><path d="M75,456.25781l0,-2.76562l132.75,0l0,2.76563z"/><path d="M75,493.13281l0,-36.875l2.76563,0l0,36.875z"/><path d="M204.98438,493.13281l0,-36.875l2.76563,0l0,36.875z"/><path d="M75,416.61719l0,-2.76562l132.75,0l0,2.76563z"/><path d="M75,453.49219l0,-36.875l2.76563,0l0,36.875z"/><path d="M204.98438,453.49219l0,-36.875l2.76563,0l0,36.875z"/><path d="M75,376.97656l0,-2.76562l132.75,0l0,2.76563z"/><path d="M75,413.85156l0,-36.875l2.76563,0l0,36.875z"/><path d="M204.98438,413.85156l0,-36.875l2.76563,0l0,36.875z"/><path d="M75,337.33594l0,-2.76562l132.75,0l0,2.76563z"/><path d="M75,374.21094l0,-36.875l2.76563,0l0,36.875z"/><path d="M204.98438,374.21094l0,-36.875l2.76563,0l0,36.875z"/><path d="M75,297.69531l0,-2.76562l132.75,0l0,2.76563z"/><path d="M75,334.57031l0,-36.875l2.76563,0l0,36.875z"/><path d="M204.98438,334.57031l0,-36.875l2.76563,0l0,36.875z"/><path d="M75,258.05469l0,-2.76562l132.75,0l0,2.76563z"/><path d="M75,294.92969l0,-36.875l2.76563,0l0,36.875z"/><path d="M204.98438,294.92969l0,-36.875l2.76563,0l0,36.875z"/><path d="M75,218.41406l0,-2.76562l132.75,0l0,2.76563z"/><path d="M75,255.28906l0,-36.875l2.76563,0l0,36.875z"/><path d="M204.98438,255.28906l0,-36.875l2.76563,0l0,36.875z"/><path d="M75,178.77344l0,-2.76562l132.75,0l0,2.76563z"/><path d="M75,215.64844l0,-36.875l2.76563,0l0,36.875z"/><path d="M204.98438,215.64844l0,-36.875l2.76563,0l0,36.875z"/><path d="M75,139.13281l0,-2.76562l132.75,0l0,2.76563z"/><path d="M75,176.00781l0,-36.875l2.76563,0l0,36.875z"/><path d="M204.98438,176.00781l0,-36.875l2.76563,0l0,36.875z"/><path d="M75,99.49219l0,-2.76562l132.75,0l0,2.76563z"/><path d="M75,136.36719l0,-36.875l2.76563,0l0,36.875z"/><path d="M204.98438,136.36719l0,-36.875l2.76563,0l0,36.875z"/><path d="M207.75,495.89844l0,-2.76562l132.75,0l0,2.76563z"/><path d="M207.75,503.27344l0,-7.375l2.76563,0l0,7.375z"/><path d="M337.73438,503.27344l0,-7.375l2.76563,0l0,7.375z"/><path d="M207.75,456.25781l0,-2.76562l132.75,0l0,2.76563z"/><path d="M207.75,493.13281l0,-36.875l2.76563,0l0,36.875z"/><path d="M337.73438,493.13281l0,-36.875l2.76563,0l0,36.875z"/><path d="M207.75,416.61719l0,-2.76562l132.75,0l0,2.76563z"/><path d="M207.75,453.49219l0,-36.875l2.76563,0l0,36.875z"/><path d="M337.73438,453.49219l0,-36.875l2.76563,0l0,36.875z"/><path d="M207.75,376.97656l0,-2.76562l132.75,0l0,2.76563z"/><path d="M207.75,413.85156l0,-36.875l2.76563,0l0,36.875z"/><path d="M337.73438,413.85156l0,-36.875l2.76563,0l0,36.875z"/><path d="M207.75,337.33594l0,-2.76562l132.75,0l0,2.76563z"/><path d="M207.75,374.21094l0,-36.875l2.76563,0l0,36.875z"/><path d="M337.73438,374.21094l0,-36.875l2.76563,0l0,36.875z"/><path d="M207.75,297.69531l0,-2.76562l132.75,0l0,2.76563z"/><path d="M207.75,334.57031l0,-36.875l2.76563,0l0,36.875z"/><path d="M337.73438,334.57031l0,-36.875l2.76563,0l0,36.875z"/><path d="M207.75,258.05469l0,-2.76562l132.75,0l0,2.76563z"/><path d="M207.75,294.92969l0,-36.875l2.76563,0l0,36.875z"/><path d="M337.73438,294.92969l0,-36.875l2.76563,0l0,36.875z"/><path d="M207.75,218.41406l0,-2.76562l132.75,0l0,2.76563z"/><path d="M207.75,255.28906l0,-36.875l2.76563,0l0,36.875z"/><path d="M337.73438,255.28906l0,-36.875l2.76563,0l0,36.875z"/><path d="M207.75,178.77344l0,-2.76562l132.75,0l0,2.76563z"/><path d="M207.75,215.64844l0,-36.875l2.76563,0l0,36.875z"/><path d="M337.73438,215.64844l0,-36.875l2.76563,0l0,36.875z"/><path d="M207.75,139.13281l0,-2.76562l132.75,0l0,2.76563z"/><path d="M207.75,176.00781l0,-36.875l2.76563,0l0,36.875z"/><path d="M337.73438,176.00781l0,-36.875l2.76563,0l0,36.875z"/><path d="M207.75,99.49219l0,-2.76562l132.75,0l0,2.76563z"/><path d="M207.75,136.36719l0,-36.875l2.76563,0l0,36.875z"/><path d="M337.73438,136.36719l0,-36.875l2.76563,0l0,36.875z"/><path d="M340.5,495.89844l0,-2.76562l132.75,0l0,2.76563z"/><path d="M340.5,503.27344l0,-7.375l2.76563,0l0,7.375z"/><path d="M470.48438,503.27344l0,-7.375l2.76563,0l0,7.375z"/><path d="M340.5,456.25781l0,-2.76562l132.75,0l0,2.76563z"/><path d="M340.5,493.13281l0,-36.875l2.76563,0l0,36.875z"/><path d="M470.48438,493.13281l0,-36.875l2.76563,0l0,36.875z"/><path d="M340.5,416.61719l0,-2.76562l132.75,0l0,2.76563z"/><path d="M340.5,453.49219l0,-36.875l2.76563,0l0,36.875z"/><path d="M470.48438,453.49219l0,-36.875l2.76563,0l0,36.875z"/><path d="M340.5,376.97656l0,-2.76562l132.75,0l0,2.76563z"/><path d="M340.5,413.85156l0,-36.875l2.76563,0l0,36.875z"/><path d="M470.48438,413.85156l0,-36.875l2.76563,0l0,36.875z"/><path d="M340.5,337.33594l0,-2.76562l132.75,0l0,2.76563z"/><path d="M340.5,374.21094l0,-36.875l2.76563,0l0,36.875z"/><path d="M470.48438,374.21094l0,-36.875l2.76563,0l0,36.875z"/><path d="M340.5,297.69531l0,-2.76562l132.75,0l0,2.76563z"/><path d="M340.5,334.57031l0,-36.875l2.76563,0l0,36.875z"/><path d="M470.48438,334.57031l0,-36.875l2.76563,0l0,36.875z"/><path d="M340.5,258.05469l0,-2.76562l132.75,0l0,2.76563z"/><path d="M340.5,294.92969l0,-36.875l2.76563,0l0,36.875z"/><path d="M470.48438,294.92969l0,-36.875l2.76563,0l0,36.875z"/><path d="M340.5,218.41406l0,-2.76562l132.75,0l0,2.76563z"/><path d="M340.5,255.28906l0,-36.875l2.76563,0l0,36.875z"/><path d="M470.48438,255.28906l0,-36.875l2.76563,0l0,36.875z"/><path d="M340.5,178.77344l0,-2.76562l132.75,0l0,2.76563z"/><path d="M340.5,215.64844l0,-36.875l2.76563,0l0,36.875z"/><path d="M470.48438,215.64844l0,-36.875l2.76563,0l0,36.875z"/><path d="M340.5,139.13281l0,-2.76562l132.75,0l0,2.76563z"/><path d="M340.5,176.00781l0,-36.875l2.76563,0l0,36.875z"/><path d="M470.48438,176.00781l0,-36.875l2.76563,0l0,36.875z"/><path d="M340.5,99.49219l0,-2.76562l132.75,0l0,2.76563z"/><path d="M340.5,136.36719l0,-36.875l2.76563,0l0,36.875z"/><path d="M470.48438,136.36719l0,-36.875l2.76563,0l0,36.875z"/><path d="M473.25,495.89844l0,-2.76562l132.75,0l0,2.76563z"/><path d="M473.25,503.27344l0,-7.375l2.76563,0l0,7.375z"/><path d="M603.23438,503.27344l0,-7.375l2.76563,0l0,7.375z"/><path d="M473.25,456.25781l0,-2.76562l132.75,0l0,2.76563z"/><path d="M473.25,493.13281l0,-36.875l2.76563,0l0,36.875z"/><path d="M603.23438,493.13281l0,-36.875l2.76563,0l0,36.875z"/><path d="M473.25,416.61719l0,-2.76562l132.75,0l0,2.76563z"/><path d="M473.25,453.49219l0,-36.875l2.76563,0l0,36.875z"/><path d="M603.23438,453.49219l0,-36.875l2.76563,0l0,36.875z"/><path d="M473.25,376.97656l0,-2.76562l132.75,0l0,2.76563z"/><path d="M473.25,413.85156l0,-36.875l2.76563,0l0,36.875z"/><path d="M603.23438,413.85156l0,-36.875l2.76563,0l0,36.875z"/><path d="M473.25,337.33594l0,-2.76562l132.75,0l0,2.76563z"/><path d="M473.25,374.21094l0,-36.875l2.76563,0l0,36.875z"/><path d="M603.23438,374.21094l0,-36.875l2.76563,0l0,36.875z"/><path d="M473.25,297.69531l0,-2.76562l132.75,0l0,2.76563z"/><path d="M473.25,334.57031l0,-36.875l2.76563,0l0,36.875z"/><path d="M603.23438,334.57031l0,-36.875l2.76563,0l0,36.875z"/><path d="M473.25,258.05469l0,-2.76562l132.75,0l0,2.76563z"/><path d="M473.25,294.92969l0,-36.875l2.76563,0l0,36.875z"/><path d="M603.23438,294.92969l0,-36.875l2.76563,0l0,36.875z"/><path d="M473.25,218.41406l0,-2.76562l132.75,0l0,2.76563z"/><path d="M473.25,255.28906l0,-36.875l2.76563,0l0,36.875z"/><path d="M603.23438,255.28906l0,-36.875l2.76563,0l0,36.875z"/><path d="M473.25,178.77344l0,-2.76562l132.75,0l0,2.76563z"/><path d="M473.25,215.64844l0,-36.875l2.76563,0l0,36.875z"/><path d="M603.23438,215.64844l0,-36.875l2.76563,0l0,36.875z"/><path d="M473.25,139.13281l0,-2.76562l132.75,0l0,2.76563z"/><path d="M473.25,176.00781l0,-36.875l2.76563,0l0,36.875z"/><path d="M603.23438,176.00781l0,-36.875l2.76563,0l0,36.875z"/><path d="M473.25,99.49219l0,-2.76562l132.75,0l0,2.76563z"/><path d="M473.25,136.36719l0,-36.875l2.76563,0l0,36.875z"/><path d="M603.23438,136.36719l0,-36.875l2.76563,0l0,36.875z"/></g><g fill="#ffffff" stroke="none" font-family="Courier New" font-weight="normal" font-size="15" text-anchor="start"><text x="169.5" y="584.5">Total width 144"   Total Height 107.5"</text></g><text x="652.96419" y="587.5" fill="#ffffff" stroke="none" font-family="FontAwesome" font-weight="normal" font-size="15" text-anchor="start"></text></g></g></svg>