<svg version="1.1" xmlns="http://www.w3.org/2000/svg" xmlns:xlink="http://www.w3.org/1999/xlink" width="681" height="600"><g transform="translate(1.5,1.5)"><g fill="none" fill-rule="nonzero" stroke="none" stroke-width="1" stroke-linecap="butt" stroke-linejoin="miter" stroke-miterlimit="10" stroke-dasharray="" stroke-dashoffset="0" font-family="none" font-weight="none" font-size="none" text-anchor="none" style="mix-blend-mode: normal"><rect x="-1" y="-1" width="681" height="600" fill="#6666cc" stroke="none"/><g fill="none" stroke="#ffffff"><path d="M258.78251,510.88341l0,-6.05381l161.43498,0l0,6.05381z"/><path d="M258.78251,527.02691l0,-16.1435l6.05381,0l0,16.1435z"/><path d="M414.16368,527.02691l0,-16.1435l6.05381,0l0,16.1435z"/><path d="M258.78251,424.11211l0,-6.05381l161.43498,0l0,6.05381z"/><path d="M258.78251,504.8296l0,-80.71749l6.05381,0l0,80.71749z"/><path d="M414.16368,504.8296l0,-80.71749l6.05381,0l0,80.71749z"/><path d="M258.78251,337.34081l0,-6.05381l161.43498,0l0,6.05381z"/><path d="M258.78251,418.0583l0,-80.71749l6.05381,0l0,80.71749z"/><path d="M414.16368,418.0583l0,-80.71749l6.05381,0l0,80.71749z"/><path d="M258.78251,250.56951l0,-6.05381l161.43498,0l0,6.05381z"/><path d="M258.78251,331.287l0,-80.71749l6.05381,0l0,80.71749z"/><path d="M414.16368,331.287l0,-80.71749l6.05381,0l0,80.71749z"/><path d="M258.78251,163.79821l0,-6.05381l161.43498,0l0,6.05381z"/><path d="M258.78251,244.5157l0,-80.71749l6.05381,0l0,80.71749z"/><path d="M414.16368,244.5157l0,-80.71749l6.05381,0l0,80.71749z"/><path d="M258.78251,77.02691l0,-6.05381l161.43498,0l0,6.05381z"/><path d="M258.78251,157.74439l0,-80.71749l6.05381,0l0,80.71749z"/><path d="M414.16368,157.74439l0,-80.71749l6.05381,0l0,80.71749z"/></g><g fill="#ffffff" stroke="none" font-family="Courier New" font-weight="normal" font-size="15" text-anchor="start"><text x="173" y="584.5">Total width 20"   Total Height 53.75"</text></g><text x="652.96419" y="587.5" fill="#ffffff" stroke="none" font-family="FontAwesome" font-weight="normal" font-size="15" text-anchor="start"></text></g></g></svg>