<svg version="1.1" xmlns="http://www.w3.org/2000/svg" xmlns:xlink="http://www.w3.org/1999/xlink" width="681" height="600"><g transform="translate(5.5,5.5)"><g fill="none" fill-rule="nonzero" stroke="none" stroke-width="1" stroke-linecap="butt" stroke-linejoin="miter" stroke-miterlimit="10" stroke-dasharray="" stroke-dashoffset="0" font-family="none" font-weight="none" font-size="none" text-anchor="none" style="mix-blend-mode: normal"><rect x="-5" y="-5" width="681" height="600" fill="#6666cc" stroke="none"/><g fill="none" stroke="#ffffff"><path d="M310.84247,513.32192l0,-3.08219l49.31507,0l0,3.08219z"/><path d="M310.84247,521.5411l0,-8.21918l3.08219,0l0,8.21918z"/><path d="M357.07534,521.5411l0,-8.21918l3.08219,0l0,8.21918z"/><path d="M310.84247,469.14384l0,-3.08219l49.31507,0l0,3.08219z"/><path d="M310.84247,510.23973l0,-41.09589l3.08219,0l0,41.09589z"/><path d="M357.07534,510.23973l0,-41.09589l3.08219,0l0,41.09589z"/><path d="M310.84247,424.96575l0,-3.08219l49.31507,0l0,3.08219z"/><path d="M310.84247,466.06164l0,-41.09589l3.08219,0l0,41.09589z"/><path d="M357.07534,466.06164l0,-41.09589l3.08219,0l0,41.09589z"/><path d="M310.84247,380.78767l0,-3.08219l49.31507,0l0,3.08219z"/><path d="M310.84247,421.88356l0,-41.09589l3.08219,0l0,41.09589z"/><path d="M357.07534,421.88356l0,-41.09589l3.08219,0l0,41.09589z"/><path d="M310.84247,336.60959l0,-3.08219l49.31507,0l0,3.08219z"/><path d="M310.84247,377.70548l0,-41.09589l3.08219,0l0,41.09589z"/><path d="M357.07534,377.70548l0,-41.09589l3.08219,0l0,41.09589z"/><path d="M310.84247,292.43151l0,-3.08219l49.31507,0l0,3.08219z"/><path d="M310.84247,333.5274l0,-41.09589l3.08219,0l0,41.09589z"/><path d="M357.07534,333.5274l0,-41.09589l3.08219,0l0,41.09589z"/><path d="M310.84247,248.25342l0,-3.08219l49.31507,0l0,3.08219z"/><path d="M310.84247,289.34932l0,-41.09589l3.08219,0l0,41.09589z"/><path d="M357.07534,289.34932l0,-41.09589l3.08219,0l0,41.09589z"/><path d="M310.84247,204.07534l0,-3.08219l49.31507,0l0,3.08219z"/><path d="M310.84247,245.17123l0,-41.09589l3.08219,0l0,41.09589z"/><path d="M357.07534,245.17123l0,-41.09589l3.08219,0l0,41.09589z"/><path d="M310.84247,159.89726l0,-3.08219l49.31507,0l0,3.08219z"/><path d="M310.84247,200.99315l0,-41.09589l3.08219,0l0,41.09589z"/><path d="M357.07534,200.99315l0,-41.09589l3.08219,0l0,41.09589z"/><path d="M310.84247,115.71918l0,-3.08219l49.31507,0l0,3.08219z"/><path d="M310.84247,156.81507l0,-41.09589l3.08219,0l0,41.09589z"/><path d="M357.07534,156.81507l0,-41.09589l3.08219,0l0,41.09589z"/><path d="M310.84247,71.5411l0,-3.08219l49.31507,0l0,3.08219z"/><path d="M310.84247,112.63699l0,-41.09589l3.08219,0l0,41.09589z"/><path d="M357.07534,112.63699l0,-41.09589l3.08219,0l0,41.09589z"/></g><g fill="#ffffff" stroke="none" font-family="Courier New" font-weight="normal" font-size="15" text-anchor="start"><text x="169" y="584.5">Total width 12"   Total Height 107.5"</text></g><text x="652.96419" y="587.5" fill="#ffffff" stroke="none" font-family="FontAwesome" font-weight="normal" font-size="15" text-anchor="start"></text></g></g></svg>